<mxfile host="app.diagrams.net" modified="2024-04-28T14:01:16.425Z" agent="Mozilla/5.0 (Windows NT 10.0; Win64; x64) AppleWebKit/537.36 (KHTML, like Gecko) Chrome/124.0.0.0 Safari/537.36" etag="yifZGnp-Y8kXcDaf52cG" version="24.3.0" type="github">
  <diagram id="07fea595-8f29-1299-0266-81d95cde20df" name="Page-1">
    <mxGraphModel dx="1444" dy="833" grid="1" gridSize="10" guides="1" tooltips="1" connect="1" arrows="1" fold="1" page="1" pageScale="1" pageWidth="1169" pageHeight="827" background="none" math="0" shadow="0">
      <root>
        <mxCell id="0" />
        <mxCell id="1" parent="0" />
        <mxCell id="5aBLiK0-T4Hlb4IrEBBi-657" value="" style="verticalLabelPosition=bottom;verticalAlign=top;html=1;shape=mxgraph.basic.acute_triangle;dx=0.5;" vertex="1" parent="1">
          <mxGeometry x="400" y="90" width="360" height="170" as="geometry" />
        </mxCell>
        <mxCell id="5aBLiK0-T4Hlb4IrEBBi-659" value="&lt;font style=&quot;font-size: 30px;&quot;&gt;Information: a meaningful image or interesting animation&amp;nbsp;&lt;/font&gt;" style="shape=trapezoid;perimeter=trapezoidPerimeter;whiteSpace=wrap;html=1;fixedSize=1;size=55;" vertex="1" parent="1">
          <mxGeometry x="240" y="420" width="690" height="100" as="geometry" />
        </mxCell>
        <mxCell id="5aBLiK0-T4Hlb4IrEBBi-660" value="&lt;font style=&quot;font-size: 30px;&quot;&gt;Data: pixels,frames of a image or animation&lt;/font&gt;" style="shape=trapezoid;perimeter=trapezoidPerimeter;whiteSpace=wrap;html=1;fixedSize=1;size=55;" vertex="1" parent="1">
          <mxGeometry x="191" y="540" width="787.5" height="100" as="geometry" />
        </mxCell>
        <mxCell id="5aBLiK0-T4Hlb4IrEBBi-661" value="&lt;font style=&quot;font-size: 30px;&quot;&gt;Knowledge: assemble several displays and have a larger one&lt;/font&gt;" style="shape=trapezoid;perimeter=trapezoidPerimeter;whiteSpace=wrap;html=1;fixedSize=1;size=55;" vertex="1" parent="1">
          <mxGeometry x="329.68" y="290" width="510.32" height="100" as="geometry" />
        </mxCell>
        <mxCell id="5aBLiK0-T4Hlb4IrEBBi-665" value="&lt;font style=&quot;font-size: 30px;&quot;&gt;Wisdom:&lt;/font&gt;&lt;span style=&quot;font-size: 30px; background-color: initial;&quot;&gt;&amp;nbsp; &amp;nbsp; &amp;nbsp; &amp;nbsp; &amp;nbsp; &amp;nbsp; &amp;nbsp; &amp;nbsp; cross-screen operation&lt;/span&gt;&lt;div&gt;&lt;div&gt;&lt;span style=&quot;font-size: 30px;&quot;&gt;&amp;nbsp; &amp;nbsp; &amp;nbsp; &amp;nbsp; &amp;nbsp; &amp;nbsp; &amp;nbsp; &amp;nbsp; &amp;nbsp; &amp;nbsp; &amp;nbsp; &amp;nbsp; &amp;nbsp; &amp;nbsp; &amp;nbsp; &amp;nbsp; &amp;nbsp; self-assembled displays&amp;nbsp;&lt;/span&gt;&lt;/div&gt;&lt;/div&gt;" style="text;html=1;align=center;verticalAlign=middle;resizable=0;points=[];autosize=1;strokeColor=none;fillColor=none;" vertex="1" parent="1">
          <mxGeometry x="500" y="170" width="630" height="90" as="geometry" />
        </mxCell>
      </root>
    </mxGraphModel>
  </diagram>
</mxfile>
